<?xml version="1.0" standalone="no"?><!DOCTYPE svg PUBLIC "-//W3C//DTD SVG 1.1//EN" "http://www.w3.org/Graphics/SVG/1.1/DTD/svg11.dtd"><svg t="1553943613018" class="icon" style="" viewBox="0 0 1024 1024" version="1.1" xmlns="http://www.w3.org/2000/svg" p-id="22861" xmlns:xlink="http://www.w3.org/1999/xlink" width="200" height="200"><defs><style type="text/css"></style></defs><path d="M465.022235 765.98255c-10.447509 0-18.877568-3.314382-25.074022-9.871095C433.823811 749.698846 430.725584 740.764424 430.725584 729.524346c0-33.504081 20.462708-115.426963 60.955812-243.535041C493.482691 480.225162 494.347312 475.109485 494.347312 470.714326c0-3.746693-1.296932-4.467211-3.746693-4.467211-4.755418 0-10.447509 1.945398-16.643963 5.836195-6.556713 4.106952-21.903743 17.580636-45.392626 40.060794l-2.161554 2.01745L402.985646 496.652969l2.665916-2.882071c27.163524-29.325077 52.381649-50.436251 74.861807-62.829158 22.98452-12.753166 42.222347-18.877568 58.650155-18.877568 9.366732 0 16.716015 2.161554 22.047847 6.340557 5.475936 4.467211 8.141852 10.447509 8.141852 17.796791 0 8.141852-8.646214 40.493104-26.515058 98.638897C514.593864 628.003377 500.183507 684.780186 500.183507 703.729806c0 3.026175 0.720518 5.331832 2.089502 7.133127C504.218407 713.312693 505.299184 713.312693 505.587391 713.312693c4.395159 0 18.445258-6.268505 64.270194-48.202646l2.377709-2.233605 20.895018 19.958345L590.392344 685.284548c-37.683085 34.65691-64.48635 56.272446-81.85083 65.927385C490.816775 761.083028 476.622572 765.98255 465.022235 765.98255z" p-id="22862" fill="#efb336"></path><path d="M574.180692 344.047284c-9.078525 0-16.716015-3.170279-22.768365-9.366732-6.05235-6.268505-9.150577-14.410357-9.150577-24.281452 0-12.753166 4.323107-23.77709 12.753166-32.783563 8.574163-9.006473 18.94962-13.617788 30.694061-13.617788 9.366732 0 17.004222 3.098227 23.056572 9.222629 6.124402 5.980298 9.150577 13.833943 9.150577 23.272727 0 12.464959-4.467211 23.705038-13.329581 33.143822C595.724177 339.219814 585.420771 344.047284 574.180692 344.047284z" p-id="22863" fill="#efb336"></path><path d="M979.399944 316.811708c-25.578384-60.595553-62.324796-114.994652-109.086406-161.684211s-101.160709-83.43597-161.828314-109.086406C645.872221 19.526034 579.224317 5.980298 510.414861 5.980298c-68.665353 0-135.385308 13.473684-198.070363 40.060794C251.748945 71.691528 197.277793 108.365888 150.588235 155.127498 103.826625 201.817056 67.152266 256.216155 41.573881 316.811708 14.986772 379.712919 1.513088 446.28877 1.513088 515.026175c0 68.665353 13.473684 135.313256 40.060794 198.142415 25.578384 60.595553 62.252744 114.994652 109.086406 161.756262 46.617506 46.689558 101.088657 83.43597 161.756262 109.086406 62.685055 26.515058 129.40501 39.988742 198.070363 39.988742 127.531663 0 249.443287-47.265972 343.398818-133.295806 8.285956-7.565438 8.790318-20.462708 1.22488-28.820715-7.493386-8.213904-20.318604-8.646214-28.60456-1.152829-86.390093 79.040811-198.646777 122.488038-315.947087 122.488038-63.189417 0-124.57754-12.320856-182.291022-36.818463-55.62398-23.488883-105.844075-57.281171-148.714889-100.36814-43.086969-43.014917-76.807205-93.018857-100.36814-148.786941-24.497608-57.64143-36.962567-119.029552-36.962567-182.21897 0-63.261469 12.464959-124.57754 36.962567-182.21897C102.529693 277.039122 136.321981 226.96313 179.40895 183.876161c42.942865-43.086969 93.090909-76.735153 148.714889-100.36814 57.785533-24.425556 119.101604-36.818463 182.291022-36.818463 63.261469 0 124.57754 12.392907 182.291022 36.818463 55.696032 23.632986 105.916127 57.281171 148.786941 100.36814 43.014917 43.086969 76.735153 93.090909 100.36814 148.931044 24.497608 57.64143 36.818463 118.957501 36.818463 182.21897 0 83.508021-22.19195 165.358852-64.198142 236.906276-5.836195 9.726991-2.521813 22.19195 7.205179 27.884042 9.654939 5.620039 22.119899 2.449761 27.81199-7.277231 45.752885-77.81593 69.962285-166.871939 69.962285-257.585139C1019.460737 446.28877 1005.987053 379.712919 979.399944 316.811708L979.399944 316.811708zM979.399944 316.811708" p-id="22864" fill="#efb336"></path></svg>