<?xml version="1.0" standalone="no"?><!DOCTYPE svg PUBLIC "-//W3C//DTD SVG 1.1//EN" "http://www.w3.org/Graphics/SVG/1.1/DTD/svg11.dtd"><svg t="1554280645909" class="icon" style="" viewBox="0 0 1024 1024" version="1.1" xmlns="http://www.w3.org/2000/svg" p-id="3213" xmlns:xlink="http://www.w3.org/1999/xlink" width="200" height="200"><defs><style type="text/css"></style></defs><path d="M211.2 534.4c-12.8-12.8-12.8-32 0-44.8l227.2-227.2c12.8-12.8 32-12.8 44.8 0 12.8 12.8 12.8 32 0 44.8L256 534.4c-9.6 12.8-32 12.8-44.8 0z" fill="#ffffff" p-id="3214"></path><path d="M211.2 489.6c12.8-12.8 32-12.8 44.8 0l227.2 227.2c12.8 12.8 12.8 32 0 44.8-12.8 12.8-32 12.8-44.8 0l-227.2-227.2c-9.6-12.8-9.6-32 0-44.8z" fill="#ffffff" p-id="3215"></path><path d="M787.2 544h-512c-16 0-32-12.8-32-32 0-16 12.8-32 32-32h512c16 0 32 12.8 32 32s-12.8 32-32 32z" fill="#ffffff" p-id="3216"></path></svg>