<?xml version="1.0" standalone="no"?><!DOCTYPE svg PUBLIC "-//W3C//DTD SVG 1.1//EN" "http://www.w3.org/Graphics/SVG/1.1/DTD/svg11.dtd"><svg t="1554080325073" class="icon" style="" viewBox="0 0 1024 1024" version="1.1" xmlns="http://www.w3.org/2000/svg" p-id="731" xmlns:xlink="http://www.w3.org/1999/xlink" width="200" height="200"><defs><style type="text/css"></style></defs><path d="M854.5984 603.1904H190.1536l-139.5328 105.3632h931.2064z" fill="#FFFFFF" p-id="732"></path><path d="M994.0672 712.9632H37.4624l151.2128-114.1824h667.5072l137.8848 114.1824z m-930.288-8.8192h905.808l-116.5792-96.544H191.632l-127.8528 96.544z" fill="" p-id="733"></path><path d="M981.8272 708.5536H50.6208l932.4384 1.04z" fill="#FFFFFF" p-id="734"></path><path d="M995.1264 714.016l-944.512-1.0528 0.0064-8.8192h932.8192z" fill="" p-id="735"></path><path d="M333.008 805.136h380.9472v26.3392H333.008z" fill="#FCEE21" p-id="736"></path><path d="M718.3648 835.888H328.6016v-35.1584H718.368v35.1584z m-380.9472-8.8192h372.128v-17.5232h-372.128v17.5232z" fill="" p-id="737"></path><path d="M840.5152 541.792L512.4096 120.2784l-320.48 423.2 256.2496-0.6688v218.4288h150.6112v-218.8128z" fill="#FCEE21" p-id="738"></path><path d="M603.2 765.648h-159.4304V547.232l-260.7296 0.6816L512.3616 113.0368l3.5296 4.5312 333.6288 428.608-246.32 0.6432v218.8288z m-150.6112-8.8192h141.7952v-218.8l237.1328-0.624L512.4576 127.52 200.816 539.0432l251.7696-0.656v218.4416z" fill="" p-id="739"></path><path d="M981.8272 708.5536l1.232 1.04-932.4384-1.04h-1.1072v245.8496h939.0784v-245.8496h-6.7648z m-267.872 122.9248H333.008v-26.3392h380.9472v26.3392z" fill="#FFFFFF" p-id="740"></path><path d="M993.0016 958.8128H45.104v-254.6688h5.5168l920.3744 1.0272-1.216-1.0272h23.2256v8.08l2.1216 1.792h-2.1216v244.7968z m-939.0784-8.8192h930.2624v-235.9872l-1.1328-0.0032-929.1296-1.0368v237.0272z m664.4416-114.1056H328.6016v-35.1584H718.368v35.1584z m-380.9472-8.8192h372.128v-17.5232h-372.128v17.5232z" fill="" p-id="741"></path></svg>