<?xml version="1.0" standalone="no"?><!DOCTYPE svg PUBLIC "-//W3C//DTD SVG 1.1//EN" "http://www.w3.org/Graphics/SVG/1.1/DTD/svg11.dtd"><svg t="1554080393146" class="icon" style="" viewBox="0 0 1024 1024" version="1.1" xmlns="http://www.w3.org/2000/svg" p-id="1030" xmlns:xlink="http://www.w3.org/1999/xlink" width="200" height="200"><defs><style type="text/css"></style></defs><path d="M847.6928 600.9408H202.2336L66.688 710.656h904.6016z" fill="#FFFFFF" p-id="1031"></path><path d="M982.9696 715.0912H54.16l146.5056-118.5856h648.7136l133.5904 118.5856z m-903.7504-8.8704h880.3936l-113.6032-100.848H203.8048l-124.5856 100.848z" fill="" p-id="1032"></path><path d="M202.4064 335.728l319.5072 438.9344 310.1664-440.6944-250.0992 0.6976v-227.456h-146.3072v227.856z" fill="#FCEE21" p-id="1033"></path><path d="M521.9712 782.2816l-3.6448-5.008L193.7088 331.3152l237.5296-0.672V102.7744h155.1776v227.4432l254.2272-0.7104-318.672 452.7744zM211.104 340.1376l310.7488 426.9056 301.6672-428.6176-245.9712 0.688V111.648h-137.4368v227.8432l-229.008 0.6464z" fill="" p-id="1034"></path><path d="M971.2896 710.656l1.1904 1.0816-905.792-1.0816h-1.0752v256.0096h912.2496V710.656h-6.5728z m-260.2176 128.0064H341.008v-27.4272H711.072v27.4272z" fill="#FFFFFF" p-id="1035"></path><path d="M982.2976 971.1008H61.1776v-264.8768h5.5136l894.2944 1.0656-1.1744-1.0656h22.4864v8.4384l1.68 1.5296-1.68-0.0032v254.912zM70.048 962.2304h903.3792v-246.0576l-0.9536-0.0032-902.4256-1.072v247.1328z m645.4592-119.1328H336.5728v-36.2976h378.9344v36.2976z m-370.0608-8.8704h361.1936v-18.56H345.4464v18.56z" fill="" p-id="1036"></path><path d="M971.2896 710.656H66.688l905.792 1.0816z" fill="#FFFFFF" p-id="1037"></path><path d="M983.9776 716.1888l-917.2928-1.0976 0.0032-8.8704h906.3136z" fill="" p-id="1038"></path><path d="M332.4032 811.2352H711.072v27.4272H332.4032z" fill="#FCEE21" p-id="1039"></path><path d="M715.5072 843.0976H327.968v-36.2976h387.5392v36.2976z m-378.6688-8.8704h369.7984v-18.56H336.8384v18.56z" fill="" p-id="1040"></path></svg>