<?xml version="1.0" standalone="no"?><!DOCTYPE svg PUBLIC "-//W3C//DTD SVG 1.1//EN" "http://www.w3.org/Graphics/SVG/1.1/DTD/svg11.dtd"><svg t="1553933901727" class="icon" style="" viewBox="0 0 1024 1024" version="1.1" xmlns="http://www.w3.org/2000/svg" p-id="8606" xmlns:xlink="http://www.w3.org/1999/xlink" width="200" height="200"><defs><style type="text/css"></style></defs><path d="M873.995636 149.899636C777.332364 53.236364 648.762182 0 512.023273 0c-136.762182 0-265.309091 53.236364-361.995637 149.899636C53.282909 246.574545 0 375.191273 0 512c0 136.855273 53.282909 265.437091 149.981091 362.088727C246.690909 970.763636 375.237818 1024 512 1024s265.332364-53.236364 361.995636-149.911273C970.763636 777.390545 1024 648.762182 1024 511.953455c0-136.808727-53.236364-265.378909-150.004364-362.053819z m-105.949091 398.813091H548.596364v220.427637a36.654545 36.654545 0 0 1-36.573091 36.759272 36.654545 36.654545 0 0 1-36.573091-36.759272V548.712727H256c-20.165818 0-36.573091-16.430545-36.573091-36.712727s16.407273-36.759273 36.573091-36.759273h219.450182V254.859636a36.689455 36.689455 0 0 1 36.573091-36.759272 36.689455 36.689455 0 0 1 36.573091 36.759272v220.381091h219.450181c20.235636 0 36.573091 16.477091 36.573091 36.759273s-16.337455 36.712727-36.573091 36.712727z m0 0" p-id="8607" fill="#f4ea2a"></path></svg>