<?xml version="1.0" standalone="no"?><!DOCTYPE svg PUBLIC "-//W3C//DTD SVG 1.1//EN" "http://www.w3.org/Graphics/SVG/1.1/DTD/svg11.dtd"><svg t="1553934097969" class="icon" style="" viewBox="0 0 1024 1024" version="1.1" xmlns="http://www.w3.org/2000/svg" p-id="12769" xmlns:xlink="http://www.w3.org/1999/xlink" width="200" height="200"><defs><style type="text/css"></style></defs><path d="M910.648372 959.013917l-0.225127-5.545296C903.077953 771.735579 727.240179 629.377314 510.113023 629.377314c-217.105666 0-392.927067 142.358265-400.273383 324.092329l-0.224104 5.545296L44.418652 959.01494l0.215918-5.986341c1.423419-39.493479 9.923-78.304414 25.26236-115.353215 16.369829-39.536458 40.222073-76.475765 70.8967-109.791545 30.4188-33.038464 66.754357-61.669548 107.999736-85.09712 41.923832-23.813359 87.855954-41.634236 136.521327-52.967352l24.690332-5.748934-23.041786-10.570753c-46.179762-21.184485-85.303828-54.584176-113.142873-96.587825-28.633131-43.199894-43.766806-93.450369-43.766806-145.31869 0-71.336722 28.049846-138.40728 78.982866-188.857299 50.953486-50.468438 118.705566-78.262458 190.774975-78.262458 72.073502 0 139.825582 27.79402 190.777021 78.262458 50.929949 50.446949 78.978772 117.517507 78.978772 188.857299 0 50.689473-14.552437 99.955526-42.085514 142.470829-26.705222 41.23617-64.422242 74.562183-109.076254 96.373954l-22.905686 11.18883 24.978904 5.092995c99.841939 20.35356 190.225459 68.796876 254.500345 136.406716 32.04688 33.708729 56.990992 71.272253 74.142627 111.645776 16.114003 37.932937 25.024953 77.721129 26.484188 118.256334l0.214894 5.986341L910.648372 959.01494zM499.800144 108.390639c-124.186394 0-225.219461 100.123348-225.219461 223.191268 0 123.089409 101.034091 223.229131 225.219461 223.229131 124.19151 0 225.228671-100.140745 225.228671-223.229131C725.029838 208.512964 623.991654 108.390639 499.800144 108.390639z" p-id="12770"></path></svg>