<?xml version="1.0" standalone="no"?><!DOCTYPE svg PUBLIC "-//W3C//DTD SVG 1.1//EN" "http://www.w3.org/Graphics/SVG/1.1/DTD/svg11.dtd"><svg t="1555209865637" class="icon" style="" viewBox="0 0 1024 1024" version="1.1" xmlns="http://www.w3.org/2000/svg" p-id="1979" xmlns:xlink="http://www.w3.org/1999/xlink" width="200" height="200"><defs><style type="text/css"></style></defs><path d="M507.673 63.142c-247.77 0-448.604 200.844-448.604 448.604 0 247.75 200.833 448.604 448.604 448.604 247.752 0 448.605-200.852 448.605-448.604 0-247.76-200.852-448.604-448.605-448.604z m196.265 476.642H407.142l115.552 115.552c10.931 10.952 10.931 28.705 0 39.658-10.952 10.951-28.706 10.951-39.658 0l-158.61-158.61c-6.717-6.718-8.803-15.939-7.28-24.638-1.522-8.698 0.563-17.91 7.28-24.637l158.61-158.61c10.952-10.943 28.706-10.943 39.658 0 10.931 10.952 10.931 28.704 0 39.657L407.142 483.708h296.796c15.48 0 28.037 12.559 28.037 28.037s-12.557 28.039-28.037 28.039z" p-id="1980"></path></svg>